<?xml version="1.0"?>
<svg xmlns="http://www.w3.org/2000/svg" viewBox="0 0 64 64" width="512" height="512"><g id="_11-Clock" data-name="11-Clock"><path d="M58,32A26,26,0,1,1,32,6,26,26,0,0,1,58,32Z" style="fill:#fbfbfb"/><path d="M58,32A26,26,0,0,0,10.865,16.865a25.994,25.994,0,0,1,36.27,36.27A25.961,25.961,0,0,0,58,32Z" style="fill:#e3effa"/><path d="M32,1A31,31,0,1,1,1,32,31,31,0,0,1,32,1Zm0,57A26,26,0,1,0,6,32,26,26,0,0,0,32,58Z" style="fill:#fcc369"/><path d="M34,17.2V31.48a1.944,1.944,0,0,1-.46,1.27l-6.28,7.64a1.808,1.808,0,0,1-2.9-.26,2.344,2.344,0,0,1,.3-2.83l5.1-6.02a.969.969,0,0,0,.24-.65V17.2a2.009,2.009,0,1,1,4,0Z" style="fill:#555fa3"/><path d="M24.36,40.13a2.344,2.344,0,0,1,.3-2.83l5.1-6.02a.969.969,0,0,0,.24-.65V17.2a2.347,2.347,0,0,1,.31-1.166A1.873,1.873,0,0,0,30,16a2.107,2.107,0,0,0-2,2.2V31.63a.969.969,0,0,1-.24.65l-5.1,6.02a2.344,2.344,0,0,0-.3,2.83,1.808,1.808,0,0,0,2.9.26l.35-.426A1.875,1.875,0,0,1,24.36,40.13Z" style="fill:#e3effa"/><path d="M32,4A28,28,0,1,0,60,32,28,28,0,0,0,32,4Zm0,54A26,26,0,1,1,58,32,26,26,0,0,1,32,58Z" style="fill:#ed9b52"/><path d="M32,62A30.034,30.034,0,0,1,2,32a1,1,0,0,0-2,0A32.005,32.005,0,0,0,62.3,42.323l-1.893-.645A30,30,0,0,1,32,62Z"/><path d="M32,0A32.048,32.048,0,0,0,.6,25.808l1.963.384A30.005,30.005,0,1,1,60.991,39.743l1.934.514A32.029,32.029,0,0,0,32,0Z"/><path d="M2.248,28.127.264,27.873c-.087.681-.155,1.368-.2,2.063l2,.127Q2.125,29.087,2.248,28.127Z"/><path d="M32,59A27,27,0,1,0,5,32,27.03,27.03,0,0,0,32,59ZM31,7.025V11h2V7.025A25.028,25.028,0,0,1,56.975,31H53v2h3.975A25.028,25.028,0,0,1,33,56.975V53H31v3.975A25.028,25.028,0,0,1,7.025,33H11V31H7.025A25.028,25.028,0,0,1,31,7.025Z"/><path d="M25.7,41.992c.07.006.139.008.209.008a2.843,2.843,0,0,0,2.119-.979l6.288-7.631A3,3,0,0,0,35,31.482V17.2a3.006,3.006,0,1,0-6,0V30.634l-5.077,6a3.31,3.31,0,0,0-.4,4.047A2.877,2.877,0,0,0,25.7,41.992Zm-.273-4.042,5.1-6.023A2,2,0,0,0,31,30.633V17.2a1.017,1.017,0,1,1,2,0V31.482a1,1,0,0,1-.228.636l-6.256,7.595a.8.8,0,0,1-.665.285.885.885,0,0,1-.661-.424A1.351,1.351,0,0,1,25.426,37.95Z"/></g></svg>
