<svg id="Capa_1" enable-background="new 0 0 512 512" height="512" viewBox="0 0 512 512" width="512" xmlns="http://www.w3.org/2000/svg"><g><g><path d="m432.684 275.989c.506 5.165 4.856 9.024 9.94 9.024.326 0 .656-.016.988-.048 5.497-.539 9.515-5.432 8.976-10.928-4.74-48.341-27.143-93.122-63.081-126.092-4.069-3.733-10.396-3.461-14.129.608-3.734 4.069-3.461 10.396.608 14.129 32.303 29.635 52.438 69.875 56.698 113.307z"/><path d="m288.765 468.063c-21.461 4.002-44.078 4.002-65.534 0-5.427-1.009-10.651 2.568-11.664 7.997s2.568 10.651 7.997 11.664c11.936 2.226 24.195 3.355 36.436 3.355 12.239 0 24.496-1.128 36.432-3.354 5.429-1.013 9.009-6.235 7.997-11.664s-6.233-9.006-11.664-7.998z"/><path d="m68.388 284.966c.332.033.662.048.988.048 5.083 0 9.434-3.86 9.94-9.024 4.259-43.432 24.394-83.672 56.696-113.308 4.07-3.734 4.342-10.06.608-14.129-3.734-4.07-10.06-4.341-14.129-.608-35.938 32.971-58.34 77.752-63.08 126.093-.538 5.496 3.481 10.389 8.977 10.928z"/><path d="m256 212c58.449 0 106-47.551 106-106 0-39.962-22.104-76.123-57.687-94.372-4.916-2.522-10.942-.58-13.461 4.334-2.521 4.914-.58 10.941 4.334 13.461 28.876 14.81 46.814 44.152 46.814 76.577 0 18.561-5.93 35.753-15.969 49.822-6.342-16.707-20.024-29.82-37.093-35.388 4.665-6.583 7.419-14.611 7.419-23.276v-10.891c0-22.253-18.104-40.358-40.358-40.358s-40.358 18.104-40.358 40.358v10.891c0 8.664 2.754 16.693 7.419 23.276-17.069 5.568-30.751 18.681-37.093 35.388-10.037-14.069-15.967-31.261-15.967-49.822 0-32.425 17.938-61.767 46.814-76.576 4.914-2.52 6.855-8.547 4.334-13.461s-8.547-6.856-13.461-4.334c-35.583 18.248-57.687 54.409-57.687 94.371 0 58.449 47.551 106 106 106zm-20.358-125.733c0-11.226 9.132-20.358 20.358-20.358s20.358 9.132 20.358 20.358v10.891c0 11.226-9.132 20.358-20.358 20.358s-20.358-9.132-20.358-20.358zm5.759 51.249h4.599v6.444c0 5.523 4.477 10 10 10s10-4.477 10-10v-6.444h4.599c20.413 0 37.232 15.655 39.097 35.588-14.727 11.809-33.395 18.896-53.696 18.896s-38.969-7.087-53.696-18.896c1.865-19.933 18.684-35.588 39.097-35.588z"/><path d="m106 300c-58.449 0-106 47.551-106 106s47.551 106 106 106 106-47.551 106-106-47.551-106-106-106zm-53.696 173.104c1.866-19.933 18.685-35.588 39.097-35.588h4.599v7.792c0 5.523 4.477 10 10 10s10-4.477 10-10v-7.792h4.599c20.413 0 37.232 15.655 39.097 35.588-14.727 11.809-33.395 18.896-53.696 18.896s-38.969-7.087-53.696-18.896zm74.054-75.946c0 11.226-9.132 20.358-20.358 20.358s-20.358-9.132-20.358-20.358v-10.891c0-11.226 9.132-20.358 20.358-20.358s20.358 9.132 20.358 20.358zm49.673 58.664c-6.342-16.707-20.024-29.82-37.093-35.388 4.665-6.583 7.419-14.611 7.419-23.276v-10.891c0-22.253-18.104-40.358-40.358-40.358s-40.358 18.104-40.358 40.358v10.891c0 8.664 2.754 16.693 7.419 23.276-17.069 5.568-30.751 18.681-37.093 35.388-10.037-14.069-15.967-31.261-15.967-49.822 0-47.42 38.58-86 86-86s86 38.58 86 86c0 18.561-5.93 35.753-15.969 49.822z"/><path d="m406 300c-58.449 0-106 47.551-106 106s47.551 106 106 106 106-47.551 106-106-47.551-106-106-106zm-53.696 173.104c1.866-19.933 18.685-35.588 39.097-35.588h4.599v6.444c0 5.523 4.477 10 10 10s10-4.477 10-10v-6.444h4.599c20.413 0 37.232 15.655 39.097 35.588-14.727 11.809-33.395 18.896-53.696 18.896s-38.969-7.087-53.696-18.896zm74.054-75.946c0 11.226-9.132 20.358-20.358 20.358s-20.358-9.132-20.358-20.358v-10.891c0-11.226 9.132-20.358 20.358-20.358s20.358 9.132 20.358 20.358zm49.673 58.664c-6.342-16.707-20.024-29.82-37.093-35.388 4.665-6.583 7.419-14.611 7.419-23.276v-10.891c0-22.253-18.104-40.358-40.358-40.358s-40.358 18.104-40.358 40.358v10.891c0 8.664 2.754 16.693 7.419 23.276-17.069 5.568-30.751 18.681-37.093 35.388-10.037-14.069-15.967-31.261-15.967-49.822 0-47.42 38.58-86 86-86s86 38.58 86 86c0 18.561-5.93 35.753-15.969 49.822z"/><circle cx="256" cy="10" r="10"/></g></g></svg>