<svg height="512" viewBox="0 0 100 100" width="512" xmlns="http://www.w3.org/2000/svg"><g id="_14_Home" data-name="14 Home"><path d="m92.68 48.89-40.87-43.11a2.58 2.58 0 0 0 -3.63 0l-40.86 43.11a2.5 2.5 0 0 0 1.81 4.22h10v40.14a2.5 2.5 0 0 0 2.5 2.5h17.71a2.5 2.5 0 0 0 2.5-2.5v-20.65h16.93v20.65a2.5 2.5 0 0 0 2.5 2.5h17.67a2.5 2.5 0 0 0 2.5-2.5v-40.14h9.43a2.5 2.5 0 0 0 1.81-4.22zm-13.75-.78a2.5 2.5 0 0 0 -2.5 2.5v40.14h-12.66v-20.65a2.5 2.5 0 0 0 -2.5-2.5h-21.93a2.5 2.5 0 0 0 -2.5 2.5v20.65h-12.67v-40.14a2.5 2.5 0 0 0 -2.5-2.5h-6.72l35.05-36.98 35.05 37z"/></g></svg>