<svg id="Capa_1" enable-background="new 0 0 511.981 511.981" height="512" viewBox="0 0 511.981 511.981" width="512" xmlns="http://www.w3.org/2000/svg"><g><g><g><path d="m379.307 390.199 17.058-70.784 69.317-69.317c28.784-28.784 28.784-75.619 0-104.403-28.777-28.777-75.612-28.777-104.396.007l-228.403 228.403c-16.885 16.885-44.36 16.878-61.238 0l-3.763-3.763c-16.885-16.885-16.885-44.353 0-61.238l175.914-175.914-21.583-21.583-175.913 175.915c-28.784 28.784-28.784 75.619 0 104.403l3.763 3.763c28.784 28.784 75.619 28.784 104.403 0l228.403-228.403c16.885-16.885 44.353-16.885 61.23-.007 16.885 16.885 16.885 44.352 0 61.237l-69.288 69.288-67.928 16c-11.187 2.64-21.389 8.324-29.511 16.446l-68.82 68.82c-24.079 24.079-24.079 63.273 0 87.353 24.086 24.086 63.273 24.079 87.353 0l67.029-67.029c8.042-8.043 13.704-18.136 16.373-29.194zm-104.985 74.64c-12.18 12.18-32 12.187-44.187 0-12.18-12.18-12.18-32.007 0-44.187l68.82-68.82c4.108-4.108 9.273-6.986 14.928-8.309l48.007-11.317-12.259 50.835c-1.353 5.597-4.216 10.705-8.281 14.77z" fill="#fe646f"/></g><g fill="#fd4755"><path d="m223.34 133.191-175.914 175.914c-16.885 16.885-16.885 44.353 0 61.238l3.762 3.763c11.054 11.054 26.655 14.87 40.848 11.443-7.479-1.805-14.566-5.618-20.392-11.443l-3.762-3.763c-16.885-16.885-16.885-44.353 0-61.238l175.914-175.914-21.583-21.583-10.228 10.228z"/><path d="m403.262 155.838c-14.19-3.427-29.79.387-40.85 11.447l-228.403 228.403c-11.789 11.789-26.608 18.742-41.973 20.874 22.149 3.073 45.435-3.879 62.43-20.874l228.403-228.403c5.827-5.827 12.915-9.641 20.393-11.447z"/><path d="m278.498 351.832-68.82 68.82c-12.18 12.18-12.18 32.007 0 44.187 8.729 8.729 21.373 11.199 32.321 7.425-4.336-1.495-8.408-3.968-11.865-7.425-12.18-12.18-12.18-32.007 0-44.187l68.82-68.82c4.108-4.108 9.273-6.985 14.928-8.309l48.007-11.317 8.718-8.59-77.182 19.906c-5.653 1.324-10.819 4.202-14.927 8.31z"/><path d="m465.682 145.695c-16.99-16.99-40.272-23.941-62.419-20.868 15.363 2.132 30.177 9.083 41.963 20.868 28.784 28.784 28.784 75.619 0 104.403l-83.335 82.108 8.238-3.057-11.278 61.05c-2.669 11.058-8.331 21.151-16.374 29.194l-67.029 67.029c-9.435 9.435-21.192 15.156-33.449 17.199 19.027 3.17 39.26-2.553 53.905-17.199l67.029-67.029c8.043-8.043 13.705-18.136 16.374-29.194l17.057-70.784 69.317-69.317c28.785-28.784 28.785-75.619.001-104.403z"/></g><path d="m254.077 137.627 22.387-22.387c1.614-1.614 1.614-4.231 0-5.846l-30.29-30.29c-1.614-1.614-4.231-1.614-5.846 0l-22.387 22.387c-1.614 1.614-1.614 4.231 0 5.846l30.29 30.29c1.615 1.614 4.232 1.614 5.846 0z" fill="#fdb4ba"/><path d="m276.464 109.394-30.29-30.29c-1.614-1.614-4.231-1.614-5.846 0l-8.457 8.457c1.23-.161 2.517.214 3.461 1.159l20.674 20.674c1.614 1.614 1.614 4.231 0 5.846l-13.426 13.426c-.615.615-1.377.993-2.172 1.139l7.822 7.822c1.614 1.614 4.231 1.614 5.846 0l22.387-22.387c1.615-1.614 1.615-4.231.001-5.846z" fill="#fe99a0"/></g><path d="m470.986 140.391c-31.705-31.703-83.295-31.701-115.004.007l-228.404 228.404c-13.959 13.96-36.671 13.959-50.63 0l-3.763-3.763c-13.959-13.959-13.959-36.672 0-50.63l170.658-170.658c2.064 1.674 4.617 2.586 7.311 2.586 3.107 0 6.029-1.21 8.227-3.407l22.387-22.387c2.197-2.197 3.407-5.119 3.407-8.227s-1.21-6.029-3.407-8.227l-6.389-6.389 4.931-1.546c24.627-7.72 47.291-21.447 65.595-39.749 12.887-12.888 12.887-33.855-.001-46.743-12.887-12.883-33.854-12.884-46.743.003-18.174 18.175-31.869 40.738-39.605 65.25l-1.671 5.294-6.409-6.409c-4.535-4.534-11.914-4.532-16.451.002l-22.385 22.385c-2.198 2.197-3.409 5.118-3.409 8.227 0 2.615.866 5.092 2.447 7.123l-67.438 67.439c-2.929 2.93-2.929 7.678 0 10.607 2.93 2.928 7.678 2.928 10.607 0l67.366-67.368 10.977 10.977-170.612 170.61c-19.807 19.808-19.807 52.037 0 71.845l3.763 3.763c19.808 19.806 52.035 19.808 71.845 0l228.403-228.403c25.859-25.861 67.936-25.862 93.789-.007 25.86 25.859 25.86 67.936 0 93.795l-20.963 20.963-10.975-10.975 20.963-20.962c9.582-9.583 14.86-22.341 14.86-35.922 0-13.582-5.278-26.34-14.86-35.923-9.58-9.579-22.336-14.854-35.917-14.854s-26.338 5.278-35.921 14.86l-228.404 228.403c-25.859 25.862-67.937 25.86-93.796 0l-3.763-3.763c-25.86-25.859-25.86-67.937 0-93.796l78.39-78.389c2.929-2.93 2.929-7.678 0-10.607-2.929-2.927-7.677-2.929-10.607 0l-78.39 78.389c-31.708 31.709-31.708 83.302 0 115.011l3.763 3.763c31.71 31.708 83.303 31.707 115.011 0l228.403-228.403c13.958-13.96 36.669-13.963 50.623-.007 13.959 13.958 13.959 36.671 0 50.63l-67.779 67.779-65.855 15.513c-12.543 2.96-23.986 9.337-33.093 18.441l-68.82 68.821c-27.006 27.007-27.006 70.951 0 97.959 13.504 13.504 31.242 20.256 48.98 20.256s35.477-6.752 48.98-20.256l67.027-67.028c9.02-9.019 15.369-20.339 18.362-32.741l16.563-68.731 67.824-67.823c31.71-31.71 31.71-83.304.002-115.012zm-197.125-60.963c7.014-22.223 19.431-42.68 35.907-59.157 3.52-3.52 8.142-5.278 12.766-5.278 4.622 0 9.245 1.76 12.764 5.278 7.039 7.038 7.039 18.49-.051 25.58-16.773 16.934-39.225 30.143-62.447 36.939zm-30.61 7.36 25.529 25.529-17.626 17.626-25.528-25.529zm185.557 189.576-10.731 10.731-10.975-10.975 10.731-10.731zm-32.437 32.437-10.961-10.99 11.084-11.084 10.975 10.975zm-38.742 105.289-67.028 67.028c-21.157 21.16-55.587 21.16-76.746.001-21.158-21.159-21.158-55.588 0-76.746l68.819-68.82c7.135-7.134 16.102-12.13 25.929-14.449l63.853-15.041 10.354 10.382-23.093 8.569-47.543 11.208c-7.015 1.642-13.419 5.205-18.523 10.308l-68.82 68.82c-15.106 15.107-15.106 39.688.001 54.795 7.554 7.553 17.475 11.329 27.396 11.329s19.844-3.776 27.397-11.329l67.027-67.029c5.041-5.039 8.592-11.371 10.27-18.314l3.669-15.213c.971-4.027-1.506-8.079-5.532-9.05-4.032-.97-8.078 1.506-9.05 5.532l-3.668 15.21c-1.029 4.257-3.205 8.14-6.295 11.228l-67.028 67.029c-9.257 9.257-24.321 9.259-33.58 0-4.475-4.474-6.938-10.437-6.938-16.79s2.464-12.316 6.938-16.79l68.819-68.82c3.125-3.124 7.044-5.306 11.347-6.312l48.007-11.317c.757-.115 20.924-7.755 22.165-8.163l-13.76 57.096c-2.345 9.712-7.319 18.582-14.387 25.648z"/></g></svg>