<svg enable-background="new 0 0 512 512" height="512" viewBox="0 0 512 512" width="512" xmlns="http://www.w3.org/2000/svg"><g id="_x32_1"><path id="XMLID_333_" d="m290.61 377.38c81.2 4.67 142.41 25.54 142.41 50.57 0 28.45-79.23 51.54-177.02 51.54-97.76 0-177.02-23.09-177.02-51.54 0-24.74 59.8-45.39 139.57-50.41 14.51 23.1 27.37 43.69 35.88 59.03 8.8-15.88 21.72-36.41 36.18-59.19z" fill="#bdc3c7"/><path id="XMLID_2_" d="m254.43 35.61c76.61 0 138.72 62.11 138.72 138.74 0 43.25-58.45 133.59-102.54 203.03-14.46 22.78-27.38 43.31-36.18 59.19-8.51-15.34-21.37-35.93-35.88-59.03-43.86-69.79-102.86-162.57-102.86-203.19 0-76.63 62.11-138.74 138.74-138.74zm61.98 133.51c0-34.16-27.84-62.01-61.98-62.01-34.16 0-62 27.85-62 62.01 0 34.14 27.84 61.98 62 61.98 34.14 0 61.98-27.84 61.98-61.98z" fill="#e74c3c"/><path id="XMLID_330_" d="m256 489.49c-48.195 0-93.641-5.505-127.966-15.5-38.634-11.25-59.054-27.17-59.054-46.04 0-37.657 80.234-56.067 148.942-60.391 5.499-.356 10.262 3.84 10.608 9.353.347 5.512-3.84 10.262-9.353 10.608-38.04 2.394-72.477 8.52-96.969 17.249-24.526 8.741-33.229 17.95-33.229 23.181 0 5.139 9.403 16.574 44.646 26.837 32.558 9.481 76.018 14.703 122.374 14.703 46.367 0 89.831-5.222 122.385-14.703 35.234-10.262 44.635-21.697 44.635-26.837 0-13.463-47.356-35.662-132.984-40.587-5.514-.317-9.727-5.044-9.409-10.558.317-5.514 5.03-9.744 10.558-9.409 70.043 4.028 151.836 22.304 151.836 60.554 0 18.87-20.417 34.79-59.042 46.04-34.321 9.996-79.771 15.5-127.978 15.5z"/><path id="XMLID_1_" d="m254.43 446.57c-3.634 0-6.981-1.971-8.745-5.148-8.264-14.896-21.014-35.335-35.604-58.562l.001.002-3.384-5.384c-45.001-71.579-101.008-160.662-101.008-203.128 0-82.016 66.725-148.74 148.74-148.74 82.004 0 148.72 66.724 148.72 148.74 0 44.584-52.718 127.539-99.231 200.729l-4.867 7.661c-14.474 22.802-27.164 42.956-35.875 58.676-1.762 3.18-5.109 5.152-8.744 5.153-.001.001-.002.001-.003.001zm0-400.96c-70.988 0-128.74 57.752-128.74 128.74 0 36.702 56.607 126.74 97.94 192.483l3.386 5.386c0 .001.001.002.001.002 10.663 16.975 19.905 31.758 27.414 44.363 7.845-13.144 17.339-28.185 27.735-44.563l4.872-7.669c40.562-63.824 96.112-151.236 96.112-190.002 0-70.987-57.744-128.74-128.72-128.74z"/><path id="XMLID_390_" d="m254.43 241.1c-39.701 0-72-32.29-72-71.98 0-39.707 32.299-72.01 72-72.01 39.69 0 71.98 32.303 71.98 72.01 0 39.69-32.29 71.98-71.98 71.98zm0-123.99c-28.673 0-52 23.332-52 52.01 0 28.662 23.327 51.98 52 51.98 28.662 0 51.98-23.318 51.98-51.98 0-28.678-23.318-52.01-51.98-52.01z"/></g></svg>