<svg id="Capa_1" enable-background="new 0 0 512 512" height="512" viewBox="0 0 512 512" width="512" xmlns="http://www.w3.org/2000/svg"><g><g><path d="m316.274 19.066c-1.687-8.64-10.711-13.714-18.992-10.728-11.11 4.007-26.908 8.626-41.278 8.903-14.37-.277-30.168-4.896-41.278-8.903-8.281-2.986-17.305 2.088-18.992 10.728-11.661 59.717 25.739 103.072 25.739 103.072h34.531 34.531c-.001 0 37.399-43.355 25.739-103.072z" fill="#eaf6ff"/></g><g><path d="m419.003 338.661c-14.911-151.994-162.999-200.052-162.999-200.052s-148.088 48.058-162.999 200.052c0 0-7.632 90.19 8.441 133.365 7.289 19.578 26.068 32.493 46.959 32.493h215.197c20.891 0 39.67-12.915 46.959-32.493 16.074-43.176 8.442-133.365 8.442-133.365z" fill="#eaf6ff"/></g><g><path d="m290.536 122.142h-20.857s37.393-43.355 25.739-103.076c-.68-3.461-2.531-6.352-5.042-8.383 2.451-.77 4.762-1.571 6.902-2.341 8.283-2.991 17.306 2.081 18.997 10.724 11.664 59.72-25.739 103.076-25.739 103.076z" fill="#d8ecfe"/></g><g><path d="m410.558 472.024c-7.283 19.577-26.069 32.492-46.956 32.492h-20.857c20.887 0 39.674-12.915 46.957-32.492 16.076-43.175 8.443-133.367 8.443-133.367-12.496-127.414-118.583-181.783-152.565-196.038 6.552-2.751 10.424-4.011 10.424-4.011s148.092 48.057 162.997 200.05c0-.001 7.633 90.191-8.443 133.366z" fill="#d8ecfe"/></g><g><path d="m331.075 417.51h-150.143c-13.158 0-23.825-10.667-23.825-23.825v-.189c0-13.158 10.667-23.825 23.825-23.825h150.143c13.158 0 23.825 10.667 23.825 23.825v.189c.001 13.158-10.666 23.825-23.825 23.825z" fill="#e19974"/></g><g><path d="m354.899 393.587c0 6.612-2.681 12.595-7.002 16.916-4.331 4.332-10.304 7.013-16.916 7.013h-18.656c6.602 0 12.584-2.681 16.916-7.013 4.332-4.321 7.012-10.303 7.012-16.916 0-13.205-10.714-23.918-23.928-23.918h18.656c13.214-.001 23.918 10.713 23.918 23.918z" fill="#dc8758"/></g><g><path d="m349.728 465.349h-187.448c-13.158 0-23.825-10.667-23.825-23.825v-.189c0-13.158 10.667-23.825 23.825-23.825h187.449c13.158 0 23.825 10.667 23.825 23.825v.189c0 13.159-10.667 23.825-23.826 23.825z" fill="#c86d36"/></g><g><path d="m373.555 441.433c0 6.602-2.681 12.584-7.012 16.906-4.322 4.332-10.304 7.012-16.906 7.012h-18.657c6.612 0 12.585-2.681 16.916-7.012 4.321-4.322 7.002-10.304 7.002-16.906 0-13.215-10.704-23.918-23.918-23.918h18.657c13.204 0 23.918 10.704 23.918 23.918z" fill="#ac5e2e"/></g><g><path d="m308.623 369.671h-105.238c-14.626 0-26.482-11.856-26.482-26.482v-.21c0-14.626 11.856-26.482 26.482-26.482h105.238c14.626 0 26.482 11.856 26.482 26.482v.21c0 14.625-11.857 26.482-26.482 26.482z" fill="#c86d36"/></g><g><path d="m206.328 316.495c15.701.138 30.023-8.566 42.701-17.83 12.666-9.256 25.063-19.92 33.621-32.847 4.436-6.701 14.611-5.766 17.378 1.779 5.74 15.654 7.299 33.166 3.793 48.898z" fill="#e19974"/></g><g><path d="m335.102 343.079c0 7.343-2.971 13.985-7.783 18.807-4.812 4.802-11.454 7.783-18.797 7.783h-18.657c7.343 0 13.995-2.981 18.797-7.783 4.822-4.822 7.793-11.464 7.793-18.807 0-14.675-11.904-26.579-26.589-26.579h18.657c14.674 0 26.579 11.904 26.579 26.579z" fill="#ac5e2e"/></g><g><path d="m303.821 316.5h-18.657c3.501-15.716 1.951-33.202-3.771-48.837.43-.61.85-1.22 1.26-1.841 4.432-6.702 14.605-5.772 17.376 1.771 5.742 15.655 7.293 33.171 3.792 48.907z" fill="#dc8758"/></g><g><path d="m290.54 158.935h-69.072c-8.75 0-15.844-7.094-15.844-15.844v-5.108c0-8.75 7.094-15.844 15.844-15.844h69.072c8.75 0 15.844 7.094 15.844 15.844v5.108c0 8.75-7.094 15.844-15.844 15.844z" fill="#91deb6"/></g><g><path d="m306.382 137.987v5.102c0 8.753-7.092 15.845-15.846 15.845h-20.007c8.753 0 15.846-7.092 15.846-15.845v-5.102c0-8.753-7.092-15.845-15.846-15.845h20.007c8.753 0 15.846 7.092 15.846 15.845z" fill="#6ed5a1"/></g><g><path d="m357.164 410.947c3.294-4.959 5.219-10.903 5.219-17.29v-.134c0-15.448-11.24-28.313-25.969-30.866 3.884-5.525 6.174-12.248 6.174-19.499v-.15c0-17.391-13.13-31.765-29.997-33.75 1.633-14.435-.256-29.835-5.537-44.238-2.228-6.073-7.604-10.314-14.034-11.067-6.576-.762-12.94 2.193-16.606 7.734-6.737 10.177-16.841 20.007-31.797 30.937-11.015 8.049-24.069 16.26-37.598 16.389h-.69c-.013 0-.026.002-.039.002h-2.874c-18.745 0-33.994 15.249-33.994 33.993v.15c0 7.251 2.29 13.974 6.174 19.499-14.73 2.553-25.97 15.418-25.97 30.866v.134c0 6.387 1.925 12.33 5.219 17.29-13.689 3.383-23.871 15.763-23.871 30.482 0 17.315 14.086 31.402 31.401 31.402h11.064c4.132 0 7.481-3.349 7.481-7.482 0-4.132-3.349-7.481-7.481-7.481h-11.064c-9.063 0-16.438-7.374-16.438-16.439 0-9.064 7.375-16.438 16.438-16.438h18.585 150.09 18.585c9.063 0 16.438 7.374 16.438 16.438 0 9.065-7.375 16.439-16.438 16.439h-141.638c-4.132 0-7.481 3.349-7.481 7.481s3.349 7.482 7.481 7.482h141.637c17.315 0 31.401-14.087 31.401-31.402 0-14.719-10.183-27.099-23.871-30.482zm-103.72-106.241c10.341-7.557 25.266-19.383 35.446-34.759.782-1.181 1.928-1.182 2.389-1.132.851.1 1.432.556 1.726 1.357 4.668 12.73 6.235 26.305 4.554 38.841h-50.223c2.096-1.417 4.132-2.864 6.108-4.307zm-69.06 38.303c0-10.494 8.538-19.03 19.031-19.03h105.178c10.494 0 19.031 8.536 19.031 19.03v.15c0 10.494-8.537 19.03-19.031 19.03h-105.178c-10.493 0-19.031-8.536-19.031-19.03zm163.035 50.649c0 9.026-7.344 16.371-16.371 16.371h-150.09c-9.026 0-16.371-7.344-16.371-16.371v-.134c0-9.027 7.344-16.372 16.371-16.372h22.456 105.178 22.456c9.027 0 16.371 7.344 16.371 16.372z"/><path d="m443.407 191.531c-1.275-3.034-3.052-5.445-4.62-7.571-1.843-2.5-2.98-4.113-3.125-5.713-.16-1.753.461-4.537 2.821-5.02 4.049-.827 6.659-4.78 5.832-8.828-.827-4.049-4.791-6.66-8.828-5.831-9.464 1.935-15.657 10.78-14.727 21.031.531 5.846 3.556 9.947 5.985 13.243 1.175 1.593 2.284 3.097 2.867 4.483.46 1.095.344 2.585-.309 3.988-.705 1.513-1.903 2.658-3.205 3.064-3.944 1.229-6.147 5.423-4.918 9.368.999 3.204 3.953 5.258 7.142 5.258.736 0 1.486-.11 2.227-.34 5.339-1.663 9.829-5.685 12.32-11.036 2.437-5.238 2.633-11.105.538-16.096z"/><path d="m89.352 207.627c2.438-5.239 2.635-11.105.54-16.096-1.275-3.034-3.052-5.445-4.619-7.571-1.844-2.5-2.981-4.113-3.126-5.713-.16-1.753.461-4.537 2.822-5.02 4.049-.827 6.659-4.78 5.831-8.828-.827-4.049-4.779-6.66-8.828-5.831-9.465 1.935-15.658 10.78-14.727 21.032.531 5.845 3.555 9.946 5.984 13.241 1.175 1.593 2.284 3.098 2.867 4.484.46 1.095.344 2.585-.309 3.988-.704 1.513-1.903 2.658-3.204 3.064-3.945 1.229-6.147 5.423-4.918 9.368.999 3.204 3.953 5.258 7.142 5.258.736 0 1.487-.11 2.227-.34 5.337-1.662 9.828-5.686 12.318-11.036z"/><path d="m129.74 151.699c1.175 1.593 2.285 3.098 2.867 4.484.46 1.095.344 2.584-.309 3.987-.704 1.514-1.903 2.659-3.206 3.066-3.944 1.228-6.146 5.423-4.916 9.368.998 3.204 3.952 5.258 7.141 5.258.736 0 1.487-.11 2.228-.341 5.339-1.663 9.829-5.686 12.32-11.037 2.438-5.238 2.634-11.103.539-16.094-1.275-3.034-3.052-5.445-4.619-7.571-1.844-2.5-2.981-4.114-3.126-5.714-.16-1.753.461-4.536 2.82-5.018 4.049-.827 6.66-4.78 5.833-8.828-.828-4.049-4.783-6.656-8.828-5.833-9.465 1.934-15.659 10.779-14.728 21.031.53 5.845 3.554 9.947 5.984 13.242z"/><path d="m371.48 142.74c1.175 1.593 2.284 3.098 2.867 4.485.46 1.095.344 2.585-.309 3.987-.704 1.513-1.903 2.658-3.205 3.064-3.944 1.229-6.147 5.423-4.919 9.368.999 3.204 3.953 5.258 7.142 5.258.737 0 1.487-.11 2.227-.34 5.339-1.663 9.83-5.685 12.32-11.036 2.438-5.238 2.635-11.104.54-16.094-1.275-3.036-3.052-5.446-4.62-7.573-1.843-2.5-2.98-4.113-3.126-5.715-.159-1.752.461-4.534 2.821-5.016 4.049-.827 6.66-4.78 5.833-8.828-.828-4.05-4.785-6.655-8.828-5.833-9.466 1.935-15.66 10.78-14.728 21.031.531 5.845 3.555 9.946 5.985 13.242z"/><path d="m426.448 337.93c-3.513-35.814-14.562-68.981-32.839-98.581-14.592-23.632-33.78-45.017-57.033-63.562-9.295-7.413-18.455-13.749-27.061-19.131 2.735-3.816 4.351-8.486 4.351-13.528v-5.186c0-8.384-4.455-15.745-11.121-19.846 5.22-7.922 12.454-20.795 17.484-37.39l.698-2.37c1.166-3.964-1.102-8.122-5.066-9.289-3.968-1.168-8.123 1.102-9.29 5.066l-.68 2.313c-5.776 19.058-14.958 32.781-19 38.231h-61.781c-7.3-9.828-31.318-46.611-22.033-94.156.523-2.679 2.317-4.052 3.341-4.633 1.787-1.013 3.835-1.189 5.77-.49 11.365 4.098 28.166 9.046 43.671 9.345.095.002.193.002.288 0 15.506-.299 32.307-5.247 43.672-9.346 1.935-.696 3.982-.522 5.769.491 1.024.581 2.818 1.954 3.341 4.632 1.429 7.319 2.14 14.779 2.114 22.173-.015 4.132 3.324 7.493 7.455 7.508h.027c4.119 0 7.466-3.333 7.48-7.455.029-8.372-.775-16.814-2.39-25.092-1.221-6.248-5.101-11.636-10.647-14.781-5.566-3.156-12.211-3.72-18.226-1.551-10.27 3.704-25.31 8.17-38.74 8.458-13.431-.287-28.471-4.754-38.739-8.457-6.019-2.171-12.662-1.606-18.227 1.55-5.546 3.145-9.426 8.533-10.646 14.781-9.197 47.097 10.067 84.205 20.848 100.48-6.652 4.104-11.097 11.457-11.097 19.831v5.186c0 5.045 1.618 9.716 4.354 13.533-8.608 5.381-17.765 11.708-27.065 19.125-23.253 18.545-42.441 39.93-57.033 63.562-18.277 29.6-29.326 62.767-32.839 98.581-.004.033-.007.066-.01.099-.318 3.751-7.584 92.368 8.885 136.606 8.319 22.349 30.009 37.365 53.97 37.365h215.197c23.961 0 45.651-15.016 53.97-37.364 16.469-44.238 9.203-132.855 8.885-136.607 0-.034-.003-.068-.007-.101zm-213.343-199.987c0-4.59 8.368-8.324 8.368-8.324h69.105c4.59 0 8.324 3.734 8.324 8.324v5.186c0 4.589-3.734 8.323-8.324 8.323h-69.149c-4.59 0-8.324-3.734-8.324-8.323zm190.445 331.473c-6.151 16.521-22.205 27.621-39.948 27.621h-215.196c-17.743 0-33.797-11.1-39.948-27.621-15.163-40.731-8.198-127.672-8.001-130.08 3.284-33.393 13.547-64.296 30.506-91.853 13.618-22.129 31.58-42.204 53.387-59.668 11.042-8.842 21.972-16.112 31.913-21.984 1.663.378 10.267.585 10.267.585-8.4 10.368-17.602 27.471-21.42 54.692-.574 4.092 2.278 7.874 6.37 8.449.353.049.702.073 1.049.073 3.671 0 6.875-2.704 7.4-6.443 5.611-40.012 23.337-53.687 28.275-56.771h15.604c4.946 3.092 22.664 16.776 28.273 56.771.525 3.739 3.729 6.443 7.4 6.443.346 0 .697-.024 1.049-.073 4.092-.575 6.944-4.356 6.37-8.449-3.818-27.221-13.02-44.324-21.42-54.692 0 0 8.606-.207 10.271-.586 9.939 5.87 20.87 13.144 31.91 21.985 21.806 17.464 39.769 37.539 53.386 59.668 16.959 27.557 27.222 58.46 30.506 91.853.196 2.408 7.16 89.348-8.003 130.08z"/></g></g></svg>