<svg height="512" viewBox="0 0 48 48" width="512" xmlns="http://www.w3.org/2000/svg"><g id="Icon" fill="rgb(0,0,0)"><path d="m30 13h-12a5 5 0 0 1 -5-5v-2a5 5 0 0 1 5-5h12a5 5 0 0 1 5 5v2a5 5 0 0 1 -5 5zm-12-10a3 3 0 0 0 -3 3v2a3 3 0 0 0 3 3h12a3 3 0 0 0 3-3v-2a3 3 0 0 0 -3-3z"/><path d="m29 8h-10a1 1 0 0 1 0-2h10a1 1 0 0 1 0 2z"/><path d="m35 47h-22a9 9 0 0 1 -9-9v-24a9 9 0 0 1 9-9h1a1 1 0 0 1 0 2h-1a7 7 0 0 0 -7 7v24a7 7 0 0 0 7 7h22a7 7 0 0 0 7-7v-24a7 7 0 0 0 -7-7h-1a1 1 0 0 1 0-2h1a9 9 0 0 1 9 9v24a9 9 0 0 1 -9 9z"/><path d="m23 33a1 1 0 0 1 -.71-.29l-4-4a1 1 0 0 1 1.42-1.42l3.29 3.3 7.29-7.3a1 1 0 0 1 1.42 1.42l-8 8a1 1 0 0 1 -.71.29z"/></g></svg>