<svg xmlns="http://www.w3.org/2000/svg" height="31.941798933789585" width="166.89417974200222" data-name="Layer 3"><rect id="backgroundrect" width="100%" height="100%" x="0" y="0" fill="none" stroke="none" class="" style=""/><g class="currentLayer" style=""><title>Layer 1</title><path d="m23.479 29.691a2.325 2.325 0 0 1 -1.089-.27l-6.233-3.276a.333.333 0 0 0 -.314 0l-6.232 3.276a2.338 2.338 0 0 1 -3.393-2.465l1.19-6.939a.337.337 0 0 0 -.1-.3l-5.038-4.917a2.338 2.338 0 0 1 1.3-3.989l6.963-1.011a.337.337 0 0 0 .254-.185l3.113-6.315a2.337 2.337 0 0 1 4.193 0l3.115 6.313a.34.34 0 0 0 .254.185l6.969 1.012a2.339 2.339 0 0 1 1.3 3.989l-5.043 4.914a.339.339 0 0 0 -.1.3l1.19 6.939a2.341 2.341 0 0 1 -2.3 2.735zm-7.479-5.586a2.325 2.325 0 0 1 1.088.27l6.232 3.275a.321.321 0 0 0 .356-.025.325.325 0 0 0 .135-.331l-1.191-6.94a2.343 2.343 0 0 1 .672-2.069l5.043-4.915a.338.338 0 0 0 -.188-.576l-6.968-1.013a2.335 2.335 0 0 1 -1.76-1.279l-3.119-6.314a.338.338 0 0 0 -.606 0l-3.113 6.312a2.335 2.335 0 0 1 -1.761 1.279l-6.967 1.015a.337.337 0 0 0 -.187.576l5.042 4.915a2.343 2.343 0 0 1 .672 2.069l-1.191 6.94a.338.338 0 0 0 .492.356l6.231-3.276a2.335 2.335 0 0 1 1.088-.269z" id="svg_1" class=""/><path d="m57.235614208221435,29.585180178642275 a2.325,2.325 0 0 1 -1.089,-0.27 l-6.233,-3.276 a0.33300000000000035,0.33300000000000035 0 0 0 -0.3140000000000002,0 l-6.232,3.276 a2.338,2.338 0 0 1 -3.3930000000000002,-2.465 l1.19,-6.939 a0.33700000000000035,0.33700000000000035 0 0 0 -0.1,-0.3000000000000002 l-5.038,-4.917 a2.338,2.338 0 0 1 1.3,-3.989 l6.963,-1.011 a0.33700000000000035,0.33700000000000035 0 0 0 0.254,-0.1850000000000001 l3.113,-6.315 a2.337,2.337 0 0 1 4.193,0 l3.115,6.313 a0.34000000000000036,0.34000000000000036 0 0 0 0.254,0.1850000000000001 l6.969,1.012 a2.339,2.339 0 0 1 1.3,3.989 l-5.043,4.914 a0.33900000000000036,0.33900000000000036 0 0 0 -0.1,0.3000000000000002 l1.19,6.939 a2.341,2.341 0 0 1 -2.3,2.7350000000000003 zm-7.479,-5.586 a2.325,2.325 0 0 1 1.088,0.27 l6.232,3.275 a0.3210000000000003,0.3210000000000003 0 0 0 0.3560000000000002,-0.02500000000000002 a0.3250000000000003,0.3250000000000003 0 0 0 0.135,-0.3310000000000003 l-1.191,-6.94 a2.343,2.343 0 0 1 0.6720000000000007,-2.069 l5.043,-4.915 a0.33800000000000036,0.33800000000000036 0 0 0 -0.1880000000000001,-0.5760000000000004 l-6.968,-1.013 a2.335,2.335 0 0 1 -1.7600000000000002,-1.279 l-3.119,-6.314 a0.33800000000000036,0.33800000000000036 0 0 0 -0.6060000000000004,0 l-3.113,6.312 a2.335,2.335 0 0 1 -1.7610000000000001,1.279 l-6.9670000000000005,1.015 a0.33700000000000035,0.33700000000000035 0 0 0 -0.1870000000000001,0.5760000000000004 l5.042,4.915 a2.343,2.343 0 0 1 0.6720000000000007,2.069 l-1.191,6.94 a0.33800000000000036,0.33800000000000036 0 0 0 0.4920000000000002,0.3560000000000002 l6.231,-3.276 a2.335,2.335 0 0 1 1.088,-0.269 z" class="" id="svg_2"/><path d="m124.74884274387358,29.90264119243622 a2.325,2.325 0 0 1 -1.089,-0.27 l-6.233,-3.276 a0.3330000000000005,0.3330000000000005 0 0 0 -0.3140000000000004,0 l-6.232,3.276 a2.338,2.338 0 0 1 -3.3930000000000002,-2.465 l1.19,-6.939 a0.3370000000000005,0.3370000000000005 0 0 0 -0.1,-0.3000000000000003 l-5.038,-4.917 a2.338,2.338 0 0 1 1.3,-3.989 l6.963,-1.011 a0.3370000000000005,0.3370000000000005 0 0 0 0.254,-0.1850000000000002 l3.113,-6.315 a2.337,2.337 0 0 1 4.193,0 l3.115,6.313 a0.3400000000000005,0.3400000000000005 0 0 0 0.254,0.1850000000000002 l6.969,1.012 a2.339,2.339 0 0 1 1.3,3.989 l-5.043,4.914 a0.3390000000000005,0.3390000000000005 0 0 0 -0.1,0.3000000000000003 l1.19,6.939 a2.341,2.341 0 0 1 -2.3,2.7350000000000003 zm-7.479,-5.586 a2.325,2.325 0 0 1 1.088,0.27 l6.232,3.275 a0.32100000000000045,0.32100000000000045 0 0 0 0.3560000000000003,-0.02500000000000004 a0.32500000000000046,0.32500000000000046 0 0 0 0.135,-0.33100000000000046 l-1.191,-6.94 a2.343,2.343 0 0 1 0.672000000000001,-2.069 l5.043,-4.915 a0.3380000000000005,0.3380000000000005 0 0 0 -0.18800000000000022,-0.5760000000000006 l-6.968,-1.013 a2.335,2.335 0 0 1 -1.7600000000000002,-1.279 l-3.119,-6.314 a0.3380000000000005,0.3380000000000005 0 0 0 -0.6060000000000006,0 l-3.113,6.312 a2.335,2.335 0 0 1 -1.7610000000000001,1.279 l-6.9670000000000005,1.015 a0.3370000000000005,0.3370000000000005 0 0 0 -0.18700000000000022,0.5760000000000006 l5.042,4.915 a2.343,2.343 0 0 1 0.672000000000001,2.069 l-1.191,6.94 a0.3380000000000005,0.3380000000000005 0 0 0 0.4920000000000003,0.3560000000000003 l6.231,-3.276 a2.335,2.335 0 0 1 1.088,-0.269 z" class="" id="svg_3"/><path d="m157.44725563907622,29.796821251869204 a2.325,2.325 0 0 1 -1.089,-0.27 l-6.233,-3.276 a0.33300000000000085,0.33300000000000085 0 0 0 -0.3140000000000006,0 l-6.232,3.276 a2.338,2.338 0 0 1 -3.3930000000000002,-2.465 l1.19,-6.939 a0.33700000000000085,0.33700000000000085 0 0 0 -0.1,-0.3000000000000003 l-5.038,-4.917 a2.338,2.338 0 0 1 1.3,-3.989 l6.963,-1.011 a0.33700000000000085,0.33700000000000085 0 0 0 0.254,-0.1850000000000003 l3.113,-6.315 a2.337,2.337 0 0 1 4.193,0 l3.115,6.313 a0.34000000000000086,0.34000000000000086 0 0 0 0.254,0.1850000000000003 l6.969,1.012 a2.339,2.339 0 0 1 1.3,3.989 l-5.043,4.914 a0.33900000000000086,0.33900000000000086 0 0 0 -0.1,0.3000000000000003 l1.19,6.939 a2.341,2.341 0 0 1 -2.3,2.7350000000000003 zm-7.479,-5.586 a2.325,2.325 0 0 1 1.088,0.27 l6.232,3.275 a0.3210000000000007,0.3210000000000007 0 0 0 0.3560000000000003,-0.02500000000000006 a0.3250000000000007,0.3250000000000007 0 0 0 0.135,-0.3310000000000007 l-1.191,-6.94 a2.343,2.343 0 0 1 0.6720000000000017,-2.069 l5.043,-4.915 a0.33800000000000086,0.33800000000000086 0 0 0 -0.18800000000000033,-0.5760000000000006 l-6.968,-1.013 a2.335,2.335 0 0 1 -1.7600000000000002,-1.279 l-3.119,-6.314 a0.33800000000000086,0.33800000000000086 0 0 0 -0.6060000000000006,0 l-3.113,6.312 a2.335,2.335 0 0 1 -1.7610000000000001,1.279 l-6.9670000000000005,1.015 a0.33700000000000085,0.33700000000000085 0 0 0 -0.18700000000000033,0.5760000000000006 l5.042,4.915 a2.343,2.343 0 0 1 0.6720000000000017,2.069 l-1.191,6.94 a0.33800000000000086,0.33800000000000086 0 0 0 0.4920000000000003,0.3560000000000003 l6.231,-3.276 a2.335,2.335 0 0 1 1.088,-0.269 z" class="" id="svg_5"/><path d="m90.56894770050049,30.114280596733096 a2.325,2.325 0 0 1 -1.089,-0.27 l-6.233,-3.276 a0.33300000000000035,0.33300000000000035 0 0 0 -0.3140000000000002,0 l-6.232,3.276 a2.338,2.338 0 0 1 -3.3930000000000002,-2.465 l1.19,-6.939 a0.33700000000000035,0.33700000000000035 0 0 0 -0.1,-0.3000000000000002 l-5.038,-4.917 a2.338,2.338 0 0 1 1.3,-3.989 l6.963,-1.011 a0.33700000000000035,0.33700000000000035 0 0 0 0.254,-0.1850000000000001 l3.113,-6.315 a2.337,2.337 0 0 1 4.193,0 l3.115,6.313 a0.34000000000000036,0.34000000000000036 0 0 0 0.254,0.1850000000000001 l6.969,1.012 a2.339,2.339 0 0 1 1.3,3.989 l-5.043,4.914 a0.33900000000000036,0.33900000000000036 0 0 0 -0.1,0.3000000000000002 l1.19,6.939 a2.341,2.341 0 0 1 -2.3,2.7350000000000003 zm-7.479,-5.586 a2.325,2.325 0 0 1 1.088,0.27 l6.232,3.275 a0.3210000000000003,0.3210000000000003 0 0 0 0.3560000000000002,-0.02500000000000002 a0.3250000000000003,0.3250000000000003 0 0 0 0.135,-0.3310000000000003 l-1.191,-6.94 a2.343,2.343 0 0 1 0.6720000000000007,-2.069 l5.043,-4.915 a0.33800000000000036,0.33800000000000036 0 0 0 -0.1880000000000001,-0.5760000000000004 l-6.968,-1.013 a2.335,2.335 0 0 1 -1.7600000000000002,-1.279 l-3.119,-6.314 a0.33800000000000036,0.33800000000000036 0 0 0 -0.6060000000000004,0 l-3.113,6.312 a2.335,2.335 0 0 1 -1.7610000000000001,1.279 l-6.9670000000000005,1.015 a0.33700000000000035,0.33700000000000035 0 0 0 -0.1870000000000001,0.5760000000000004 l5.042,4.915 a2.343,2.343 0 0 1 0.6720000000000007,2.069 l-1.191,6.94 a0.33800000000000036,0.33800000000000036 0 0 0 0.4920000000000002,0.3560000000000002 l6.231,-3.276 a2.335,2.335 0 0 1 1.088,-0.269 z" class="" id="svg_4"/></g></svg>