<svg height="512pt" viewBox="-52 0 512 512.00032" width="512pt" xmlns="http://www.w3.org/2000/svg"><path d="m348.878906 60.730469c-37.773437-38.324219-88.183594-59.882813-141.9375-60.7070315-52.09375-.8046875-102.121094 18.4492185-140.890625 54.1953125-3.046875 2.808594-3.238281 7.554688-.429687 10.601562 2.808594 3.046876 7.554687 3.238282 10.601562.429688 35.925782-33.125 82.261719-50.949219 130.488282-50.222656 49.792968.765625 96.488281 20.734375 131.480468 56.234375 35.027344 35.539062 54.320313 82.59375 54.320313 132.5 0 44.636719-15.882813 87.957031-44.71875 121.972656-.148438.175781-.289063.355469-.417969.542969l-135.886719 170.074218c-.414062.519532-.933593.636719-1.300781.644532-.371094.003906-.890625-.085938-1.328125-.585938l-146.046875-167.117187c-.871094-.980469-1.734375-1.964844-2.640625-3.019531l-.242187-.277344c-.066407-.089844-.136719-.175782-.207032-.261719-28.839844-34.015625-44.71875-77.335937-44.71875-121.972656 0-43.082031 15.21875-85.363281 42.855469-119.054688 2.628906-3.203125 2.160156-7.929687-1.042969-10.558593-3.203125-2.628907-7.929687-2.160157-10.558594 1.042968-29.828124 36.367188-46.257812 82.027344-46.257812 128.566406 0 48.035157 17.03125 94.648438 47.972656 131.320313.113282.148437.234375.296875.359375.441406l.492188.5625c.917969 1.074219 1.847656 2.136719 2.738281 3.136719l146.003906 167.066406c3.183594 3.644532 7.753906 5.714844 12.582032 5.714844.125 0 .25 0 .375-.003906 4.964843-.109375 9.589843-2.398438 12.691406-6.277344l136.183594-170.449219c.054687-.066406.105468-.132812.15625-.199219 30.933593-36.667968 47.964843-83.285156 47.964843-131.3125-.003906-53.871093-20.828125-104.667968-58.640625-143.027343zm0 0"/><path d="m94.90625 142.648438c-14.40625 8.316406-18.164062 28.878906-8.375 45.835937 6.996094 12.113281 19.042969 19.160156 30.605469 19.160156 4.621093 0 9.164062-1.125 13.277343-3.5 14.40625-8.316406 18.164063-28.878906 8.375-45.835937-9.789062-16.953125-29.472656-23.976563-43.882812-15.660156zm28.003906 48.503906c-7.117187 4.105468-17.828125-.550782-23.382812-10.171875-5.558594-9.625-4.238282-21.226563 2.882812-25.335938 1.761719-1.019531 3.746094-1.5 5.820313-1.5 6.289062 0 13.382812 4.429688 17.5625 11.667969 5.558593 9.625 4.238281 21.226562-2.882813 25.339844zm0 0"/><path d="m181.773438 85.101562c-7.230469-5.546874-15.691407-7.523437-23.820313-5.566406-8.132813 1.957032-14.769531 7.566406-18.6875 15.792969-3.660156 7.691406-4.496094 16.847656-2.34375 25.785156 2.148437 8.9375 7.058594 16.714844 13.816406 21.898438 5.410157 4.148437 11.511719 6.300781 17.644531 6.300781 2.066407 0 4.132813-.242188 6.179688-.734375 8.128906-1.957031 14.765625-7.566406 18.683594-15.792969 3.664062-7.691406 4.496094-16.847656 2.34375-25.785156-2.148438-8.9375-7.054688-16.714844-13.816406-21.898438zm-2.074219 41.230469c-1.933594 4.0625-5.003907 6.777344-8.648438 7.65625-3.640625.875-7.613281-.148437-11.183593-2.886719-4.039063-3.097656-7.007813-7.890624-8.355469-13.496093-1.351563-5.609375-.886719-11.230469 1.300781-15.828125 1.933594-4.058594 5.003906-6.777344 8.648438-7.652344.851562-.203125 1.71875-.304688 2.59375-.304688 2.878906 0 5.855468 1.089844 8.589843 3.1875 4.039063 3.097657 7.007813 7.894532 8.359375 13.5 1.347656 5.609376.882813 11.226563-1.304687 15.824219zm0 0"/><path d="m277.101562 204.144531c4.113282 2.375 8.652344 3.5 13.273438 3.5 11.566406 0 23.613281-7.046875 30.609375-19.160156 9.789063-16.957031 6.03125-37.519531-8.378906-45.835937-14.402344-8.316407-34.089844-1.292969-43.878907 15.660156-9.789062 16.957031-6.03125 37.519531 8.375 45.835937zm4.617188-38.332031c5.558594-9.621094 16.265625-14.277344 23.386719-10.167969 7.117187 4.109375 8.441406 15.710938 2.882812 25.335938-5.554687 9.621093-16.265625 14.28125-23.382812 10.171875-7.121094-4.113282-8.441407-15.714844-2.886719-25.339844zm0 0"/><path d="m234.871094 97.007812c3.566406-2.734374 7.539062-3.757812 11.183594-2.882812 1.457031.351562 2.824218.992188 4.066406 1.90625 3.335937 2.453125 8.035156 1.738281 10.488281-1.597656 2.457031-3.339844 1.742187-8.035156-1.597656-10.492188-2.859375-2.105468-6.039063-3.585937-9.449219-4.40625-8.128906-1.953125-16.589844.023438-23.824219 5.566406-6.757812 5.183594-11.664062 12.960938-13.816406 21.898438-2.148437 8.9375-1.316406 18.09375 2.347656 25.785156 3.917969 8.226563 10.550781 13.835938 18.683594 15.792969 2.046875.492187 4.113281.734375 6.175781.734375 6.136719 0 12.238282-2.152344 17.648438-6.300781 6.757812-5.183594 11.664062-12.960938 13.816406-21.898438.96875-4.027343-1.511719-8.082031-5.539062-9.050781-4.03125-.964844-8.082032 1.511719-9.050782 5.539062-1.347656 5.605469-4.316406 10.402344-8.359375 13.5-3.566406 2.738282-7.535156 3.761719-11.183593 2.886719-3.640626-.878906-6.710938-3.597656-8.644532-7.65625-2.191406-4.597656-2.652344-10.21875-1.304687-15.824219 1.351562-5.605468 4.316406-10.402343 8.359375-13.5zm0 0"/><path d="m171.757812 169.1875c-9.371093 8.804688-14.746093 21.222656-14.746093 34.074219l.003906.421875c.027344 3.394531-2.058594 6.332031-5.328125 7.484375-19.296875 6.820312-31.808594 25.160156-31.136719 45.640625.644531 19.65625 13.71875 36.921875 32.53125 42.964844 3.941407 1.269531 8.167969-.902344 9.4375-4.847657 1.269531-3.945312-.902343-8.167969-4.847656-9.4375-12.796875-4.113281-21.6875-15.835937-22.125-29.171875-.457031-13.914062 8.039063-26.371094 21.140625-31 9.257812-3.269531 15.417969-12.019531 15.332031-21.765625l-.003906-.289062c0-8.855469 3.558594-17.070313 10.015625-23.140625 6.453125-6.058594 14.894531-9.085938 23.78125-8.535156 15.183594.953124 27.863281 13.070312 29.496094 28.1875.132812 1.25.195312 2.515624.1875 3.757812-.082032 9.761719 6.078125 18.515625 15.332031 21.785156 13.101563 4.628906 21.59375 17.085938 21.140625 31-.539062 16.441406-13.828125 29.894532-30.257812 30.632813-4.789063.207031-9.433594-.609375-13.789063-2.449219-15.582031-6.582031-32.75-6.582031-48.332031 0-3.816406 1.613281-5.605469 6.011719-3.992188 9.832031 1.609375 3.8125 6.011719 5.601563 9.828125 3.992188 11.820313-4.992188 24.839844-4.992188 36.660157 0 5.765624 2.433593 11.851562 3.664062 18.121093 3.660156.722657 0 1.449219-.015625 2.175781-.046875 24.203126-1.085938 43.785157-20.90625 44.582032-45.128906.671875-20.480469-11.84375-38.824219-31.140625-45.640625-3.265625-1.152344-5.355469-4.101563-5.324219-7.511719.015625-1.820312-.078125-3.671875-.277344-5.496094-2.402344-22.285156-21.09375-40.148437-43.472656-41.550781-13.0625-.816406-25.488281 3.652344-34.992188 12.578125zm0 0"/></svg>